HIERARCHY
ROOT Hips
{
	OFFSET 0.000000 89.005402 0.000000
	CHANNELS 6 Xposition Yposition Zposition Xrotation Yrotation Zrotation
	JOINT Spine
	{
		OFFSET 0.116900 10.681000 0.373400
		CHANNELS 3 Xrotation Yrotation Zrotation
		JOINT Spine1
		{
			OFFSET 0.000000 13.840401 0.053500
			CHANNELS 3 Xrotation Yrotation Zrotation
			JOINT Spine2
			{
				OFFSET 0.000000 14.712700 -0.366200
				CHANNELS 3 Xrotation Yrotation Zrotation
				JOINT Neck
				{
					OFFSET 0.000000 35.415497 -3.314200
					CHANNELS 3 Xrotation Yrotation Zrotation
					JOINT Head
					{
						OFFSET 0.000000 16.899200 1.218300
						CHANNELS 3 Xrotation Yrotation Zrotation
						JOINT HeadTop_End
						{
							OFFSET 0.000000 22.206207 2.192500
							CHANNELS 3 Xrotation Yrotation Zrotation
							End Site
							{
								OFFSET 0.000000 22.314178 0.000000
							}
						}
					}
				}
				JOINT LeftShoulder
				{
					OFFSET 12.896400 26.716293 -4.548400
					CHANNELS 3 Xrotation Yrotation Zrotation
					JOINT LeftArm
					{
						OFFSET 19.027000 -4.857010 -1.718400
						CHANNELS 3 Xrotation Yrotation Zrotation
						JOINT LeftForeArm
						{
							OFFSET 24.179897 0.000000 0.000000
							CHANNELS 3 Xrotation Yrotation Zrotation
							JOINT LeftHand
							{
								OFFSET 27.156403 0.000000 0.000000
								CHANNELS 3 Xrotation Yrotation Zrotation
								JOINT LeftHandIndex1
								{
									OFFSET 16.441200 0.000000 0.000000
									CHANNELS 3 Xrotation Yrotation Zrotation
									JOINT LeftHandIndex2
									{
										OFFSET 4.821899 0.000000 0.000000
										CHANNELS 3 Xrotation Yrotation Zrotation
										JOINT LeftHandIndex3
										{
											OFFSET 6.386497 0.000000 0.000000
											CHANNELS 3 Xrotation Yrotation Zrotation
											JOINT LeftHandIndex4
											{
												OFFSET 5.188988 0.000000 0.000000
												CHANNELS 3 Xrotation Yrotation Zrotation
												End Site
												{
													OFFSET -0.178703 5.185913 0.000177
												}
											}
										}
									}
								}
								JOINT LeftHandThumb1
								{
									OFFSET 6.534897 -5.032593 5.900300
									CHANNELS 3 Xrotation Yrotation Zrotation
									JOINT LeftHandThumb2
									{
										OFFSET 3.818176 -2.204422 2.204423
										CHANNELS 3 Xrotation Yrotation Zrotation
										JOINT LeftHandThumb3
										{
											OFFSET 3.252098 -1.877594 1.877601
											CHANNELS 3 Xrotation Yrotation Zrotation
											JOINT LeftHandThumb4
											{
												OFFSET 5.251778 -3.032120 3.032117
												CHANNELS 3 Xrotation Yrotation Zrotation
												End Site
												{
													OFFSET 0.000023 6.780014 0.000000
												}
											}
										}
									}
								}
							}
						}
					}
				}
				JOINT RightShoulder
				{
					OFFSET -12.896300 26.716293 -4.548400
					CHANNELS 3 Xrotation Yrotation Zrotation
					JOINT RightArm
					{
						OFFSET -19.027000 -4.857010 -1.718400
						CHANNELS 3 Xrotation Yrotation Zrotation
						JOINT RightForeArm
						{
							OFFSET -24.179897 0.000000 0.000000
							CHANNELS 3 Xrotation Yrotation Zrotation
							JOINT RightHand
							{
								OFFSET -27.156403 0.000000 0.000000
								CHANNELS 3 Xrotation Yrotation Zrotation
								JOINT RightHandThumb1
								{
									OFFSET -6.591202 -4.852203 5.988100
									CHANNELS 3 Xrotation Yrotation Zrotation
									JOINT RightHandThumb2
									{
										OFFSET -3.818176 -2.204422 2.204423
										CHANNELS 3 Xrotation Yrotation Zrotation
										JOINT RightHandThumb3
										{
											OFFSET -3.252098 -1.877594 1.877601
											CHANNELS 3 Xrotation Yrotation Zrotation
											JOINT RightHandThumb4
											{
												OFFSET -5.251778 -3.032120 3.032117
												CHANNELS 3 Xrotation Yrotation Zrotation
												End Site
												{
													OFFSET -0.000023 6.780014 0.000000
												}
											}
										}
									}
								}
								JOINT RightHandIndex1
								{
									OFFSET -16.029404 0.000000 0.000000
									CHANNELS 3 Xrotation Yrotation Zrotation
									JOINT RightHandIndex2
									{
										OFFSET -5.213303 0.000000 0.000000
										CHANNELS 3 Xrotation Yrotation Zrotation
										JOINT RightHandIndex3
										{
											OFFSET -6.386528 0.000000 0.000000
											CHANNELS 3 Xrotation Yrotation Zrotation
											JOINT RightHandIndex4
											{
												OFFSET -5.189026 0.000000 0.000000
												CHANNELS 3 Xrotation Yrotation Zrotation
												End Site
												{
													OFFSET 0.236702 5.183624 0.001972
												}
											}
										}
									}
								}
							}
						}
					}
				}
			}
		}
	}
	JOINT LeftUpLeg
	{
		OFFSET 14.073000 -7.904099 -1.463000
		CHANNELS 3 Xrotation Yrotation Zrotation
		JOINT LeftLeg
		{
			OFFSET -0.109806 -34.073280 4.093200
			CHANNELS 3 Xrotation Yrotation Zrotation
			JOINT LeftFoot
			{
				OFFSET 0.109806 -29.899420 -6.319000
				CHANNELS 3 Xrotation Yrotation Zrotation
				JOINT LeftToeBase
				{
					OFFSET 1.551100 -14.988700 20.535801
					CHANNELS 3 Xrotation Yrotation Zrotation
					JOINT LeftToe_End
					{
						OFFSET 0.221200 0.570800 13.248301
						CHANNELS 3 Xrotation Yrotation Zrotation
						End Site
						{
							OFFSET 0.000000 13.262435 0.000000
						}
					}
				}
			}
		}
	}
	JOINT RightUpLeg
	{
		OFFSET -13.839300 -7.904099 -1.463000
		CHANNELS 3 Xrotation Yrotation Zrotation
		JOINT RightLeg
		{
			OFFSET 0.109694 -34.073219 4.093300
			CHANNELS 3 Xrotation Yrotation Zrotation
			JOINT RightFoot
			{
				OFFSET -0.109694 -29.899384 -6.319200
				CHANNELS 3 Xrotation Yrotation Zrotation
				JOINT RightToeBase
				{
					OFFSET -1.551100 -14.988700 20.535801
					CHANNELS 3 Xrotation Yrotation Zrotation
					JOINT RightToe_End
					{
						OFFSET -0.221200 0.570900 13.248299
						CHANNELS 3 Xrotation Yrotation Zrotation
						End Site
						{
							OFFSET 0.000000 13.262440 0.000000
						}
					}
				}
			}
		}
	}
}
MOTION
Frames: 9
Frame Time: 0.033333
-1.627267 75.634560 0.471733 3.014636 -58.248768 6.509603 11.191472 0.114581 -2.728180 8.434577 0.027699 -5.592318 8.457042 0.027880 -5.591868 -21.555840 25.063367 12.062737 -0.293895 25.465788 -3.209033 0.000000 -0.000000 -0.000000 -6.221633 -11.503784 -4.023770 -23.062224 9.568439 -36.639652 0.046067 -43.168927 -0.011198 22.743785 -5.686025 15.979366 13.340873 -1.006686 10.682282 -0.167588 0.303378 -31.105658 -0.143377 0.303611 -32.256231 -0.000003 0.000002 0.000002 -1.064242 -7.954949 8.490077 2.373391 19.986129 -2.038324 0.808205 1.237764 2.631755 -0.000001 0.000001 -0.000001 -5.488226 10.658258 2.466465 -41.473899 -26.755574 30.079043 24.955689 111.862885 -23.308734 -8.702499 12.423116 -9.801873 0.264991 10.061128 -10.888487 1.383781 -17.412881 3.016255 3.342351 -13.253717 -8.262776 -0.000000 -0.000002 0.000001 19.443617 11.174441 -13.340212 -0.118643 -0.322726 18.035570 -0.089911 -0.286602 23.256608 0.000001 0.000000 0.000002 -33.864501 9.516029 26.662552 43.323330 -9.047273 -10.186692 -11.336834 -2.060259 -9.924960 -0.327605 1.238424 0.837253 0.000000 0.000001 0.000000 -30.285158 -7.919300 -28.817326 49.530401 4.566597 -7.141951 -22.966909 0.982747 23.038404 -0.322821 -0.997433 -0.837144 0.000000 0.000001 -0.000000 
-1.804010 75.696556 0.781984 1.945678 -58.201394 4.928436 11.074741 0.047545 -2.858356 8.102236 -0.079243 -5.782992 8.141046 -0.020067 -5.669063 -18.527935 24.522910 14.003588 -1.487457 25.951415 -3.158142 -0.000000 -0.000000 0.000001 -6.236806 -11.503356 -4.268686 -23.017896 9.124021 -36.897105 0.370741 -42.970837 0.188820 22.298134 -6.173271 14.865347 13.344319 -1.010242 9.566475 -0.166001 0.305936 -32.221701 -0.139047 0.302219 -33.372431 -0.000000 0.000000 -0.000000 -0.900436 -6.912903 8.875611 2.702650 20.943208 -1.669196 1.043328 2.220245 3.099193 0.000002 0.000000 -0.000001 -5.455222 9.118372 2.865594 -39.584163 -24.962354 32.569139 32.024862 109.765074 -30.432103 -6.042483 12.179874 -6.830140 0.293037 9.804836 -10.980596 1.472365 -17.643733 2.926346 3.379697 -13.497401 -8.369447 -0.000002 0.000004 -0.000001 19.444003 11.174655 -13.068975 -0.118460 -0.322952 18.307646 -0.088903 -0.286539 23.528672 -0.000002 -0.000000 -0.000001 -33.130362 8.674590 27.115687 43.924680 -8.887154 -10.259164 -12.057434 -1.977592 -10.043056 -0.327605 1.238424 0.837253 0.000000 -0.000001 0.000000 -29.095182 -8.868567 -28.455039 48.812797 4.911098 -7.065911 -22.984235 0.990780 22.980619 -0.322821 -0.997432 -0.837144 -0.000000 -0.000001 -0.000000 
-2.228117 75.760910 1.093063 0.790486 -58.135544 3.249277 10.788344 -0.019181 -2.992274 7.270799 -0.184026 -5.952562 7.333235 -0.141448 -5.749984 -15.365846 23.807470 15.740359 -2.517132 26.128255 -2.465564 0.000000 0.000000 0.000000 -6.325167 -11.391325 -4.882483 -22.898820 7.934778 -37.583669 0.605402 -42.478603 0.288627 21.827082 -6.596460 13.722770 13.348162 -1.014355 8.302019 -0.164247 0.311217 -33.486502 -0.134149 0.303431 -34.637098 0.000001 -0.000000 0.000000 -0.721103 -5.731119 9.308681 3.070446 22.029827 -1.254712 1.300484 3.335582 3.624968 0.000001 -0.000000 0.000001 -5.464757 7.586451 3.743468 -37.790327 -22.567088 35.579173 34.606478 106.014426 -33.500691 -4.873105 11.192877 -2.690895 0.363704 9.146259 -11.216952 1.689605 -18.237894 2.687788 3.468556 -14.124277 -8.646015 0.000002 0.000002 -0.000001 19.444953 11.175186 -12.371478 -0.117826 -0.323510 19.006945 -0.086353 -0.286306 24.227999 -0.000000 -0.000002 0.000001 -32.340160 8.360086 27.952315 44.346161 -9.333333 -10.371048 -12.834359 -1.917679 -10.045359 -0.327605 1.238423 0.837253 0.000000 -0.000001 -0.000000 -27.547884 -9.795534 -27.897365 48.132169 5.075358 -7.003699 -23.278944 0.943156 22.943784 -0.322821 -0.997432 -0.837144 -0.000000 -0.000000 0.000000 
-2.432391 75.821747 1.381248 -0.188616 -58.061587 1.771517 10.414719 -0.075851 -3.105155 6.160770 -0.225408 -6.006330 6.235199 -0.288303 -5.832639 -13.252872 22.995070 16.610040 -0.656459 24.644239 -0.376753 -0.000000 -0.000000 0.000001 -6.522906 -10.848410 -5.689974 -22.746029 6.244657 -38.569347 0.194652 -41.848750 -0.071321 21.621174 -6.853034 12.810650 13.352128 -1.018832 6.961575 -0.162336 0.316725 -34.827258 -0.130202 0.308062 -35.977796 0.000000 -0.000003 0.000001 -0.538017 -4.477557 9.763638 3.454250 23.184201 -0.819620 1.562373 4.519992 4.178280 0.000001 0.000001 -0.000000 -5.446451 6.011413 4.813157 -36.816291 -19.425637 38.246877 46.420103 102.188147 -45.716502 -1.994076 10.194065 1.950162 0.465632 8.245357 -11.545587 1.980514 -19.056400 2.363524 3.585791 -14.984530 -9.025304 0.000002 -0.000001 0.000000 19.446302 11.175941 -11.413870 -0.116989 -0.324228 19.966144 -0.082893 -0.286921 25.187163 0.000000 0.000001 -0.000000 -31.917508 8.296188 28.736658 44.750710 -9.921032 -10.495710 -13.392766 -1.918570 -9.801047 -0.327605 1.238419 0.837253 -0.000000 0.000001 0.000000 -26.235172 -10.482343 -27.377968 47.369910 5.135903 -6.937855 -23.287690 0.928115 23.007251 -0.322821 -0.997432 -0.837144 -0.000000 -0.000002 -0.000000 
-2.324779 75.995323 1.581166 -0.733832 -58.000594 0.790581 9.960924 -0.043124 -3.148766 4.993839 -0.145648 -6.000721 5.069692 -0.210438 -5.904316 -14.972056 21.564492 16.348623 6.410340 20.532961 3.876028 -0.000000 -0.000001 -0.000000 -6.754571 -9.624469 -6.611561 -22.578375 3.898513 -39.785524 -1.240821 -41.221209 -1.114153 22.199780 -6.782292 12.485950 13.355969 -1.023399 5.617827 -0.160448 0.322599 -36.171039 -0.127065 0.312621 -37.321673 -0.000002 -0.000001 0.000001 -0.361589 -3.220112 10.215751 3.831845 24.344169 -0.387821 1.813990 5.709420 4.729108 -0.000001 0.000001 -0.000003 -5.364499 4.615072 5.607173 -36.439677 -16.657160 40.280108 70.187529 99.380468 -69.889398 1.319062 9.640120 6.288574 0.573785 7.257464 -11.904821 2.295575 -19.955362 2.010951 3.708135 -15.928416 -9.441326 -0.000001 -0.000000 0.000001 19.447750 11.176808 -10.362692 -0.116049 -0.325086 21.017803 -0.079080 -0.287938 26.238807 0.000001 0.000002 0.000001 -31.872333 8.506972 29.225075 44.749969 -10.388655 -10.539067 -13.423495 -1.992447 -9.392023 -0.327605 1.238418 0.837253 0.000000 0.000002 -0.000000 -25.325341 -10.905854 -26.913432 46.260868 5.044812 -6.846560 -22.743673 1.013696 23.132498 -0.322821 -0.997432 -0.837144 -0.000000 0.000002 0.000000 
-2.237242 76.458633 1.656222 -0.068954 -58.022006 1.197264 9.427369 0.157933 -3.111826 3.995277 0.150262 -6.012672 4.042934 0.172529 -5.966282 -18.063709 20.158337 15.312135 14.335454 16.151362 7.475933 -0.000001 0.000001 0.000002 -6.941368 -8.460570 -7.295548 -22.461931 1.247148 -41.230270 -1.878119 -40.761992 -1.622686 23.111620 -6.497445 12.728130 13.359532 -1.027791 4.343583 -0.158593 0.326385 -37.445395 -0.124586 0.316888 -38.596012 -0.000000 0.000001 -0.000000 -0.200763 -2.026934 10.641056 4.184672 25.446047 0.017959 2.042656 6.839013 5.248295 -0.000001 -0.000001 -0.000000 -5.266833 3.355026 6.445769 -36.090962 -15.325688 41.211948 88.811290 99.067939 -88.745379 4.583289 8.896460 9.742262 0.670546 6.340006 -12.237311 2.584669 -20.791863 1.686141 3.816004 -16.805571 -9.828009 -0.000001 0.000001 -0.000001 19.449056 11.177663 -9.385167 -0.115175 -0.325828 21.994611 -0.075526 -0.289107 27.215591 0.000001 -0.000002 0.000001 -32.010474 9.362121 29.192194 43.498760 -10.605015 -10.348952 -12.698701 -2.099942 -9.131548 -0.327605 1.238422 0.837253 0.000000 -0.000002 0.000000 -24.951130 -11.101760 -26.540573 44.541190 4.778639 -6.702134 -21.734027 1.209384 23.201777 -0.322821 -0.997433 -0.837144 0.000000 0.000000 -0.000000 
-2.139175 77.183502 1.686846 1.236417 -58.633807 2.285932 8.891880 0.363891 -2.958567 3.400173 0.438442 -6.017903 3.332047 0.546585 -5.996660 -20.953830 19.377274 12.925552 17.780835 13.550370 7.885984 0.000001 0.000001 -0.000002 -7.042327 -7.531641 -7.444348 -22.418317 0.082630 -42.146195 -1.788555 -41.198571 -1.696756 23.821810 -6.244226 13.330228 13.362597 -1.031759 3.211551 -0.156952 0.328658 -38.577424 -0.122641 0.320841 -39.728062 -0.000001 0.000001 0.000001 -0.062977 -0.966357 11.016414 4.495712 26.425416 0.375964 2.237735 7.843975 5.707219 -0.000000 0.000001 0.000000 -5.188995 2.510314 7.204399 -36.143141 -14.198160 41.500486 97.912770 99.532624 -97.971202 7.160133 8.288337 12.243078 0.741088 5.650008 -12.486809 2.800789 -21.421280 1.443469 3.893422 -17.465547 -10.119117 0.000001 -0.000000 -0.000000 19.450063 11.178278 -8.649320 -0.114516 -0.326344 22.729118 -0.072898 -0.290181 27.950159 0.000002 0.000000 -0.000002 -31.909944 10.901213 29.026907 41.348268 -10.439878 -9.955846 -11.628816 -2.191062 -9.106949 -0.327605 1.238418 0.837253 0.000000 0.000001 0.000000 -24.985375 -11.183402 -26.108222 42.105299 4.896499 -6.458111 -20.095538 1.615595 22.968599 -0.322821 -0.997434 -0.837144 -0.000000 0.000000 -0.000000 
-1.929755 77.930748 1.620913 1.709542 -59.541587 2.373062 8.438881 0.413484 -2.747030 3.169358 0.509892 -5.918968 3.182140 0.605311 -5.899191 -23.939378 19.569817 10.347463 14.196524 13.680138 6.018633 -0.000000 0.000001 -0.000000 -7.134349 -7.207541 -7.193177 -22.421079 0.435622 -42.190020 -0.659731 -42.173621 -1.026240 24.286360 -6.137578 14.020501 13.365014 -1.035020 2.294500 -0.155632 0.330055 -39.494452 -0.121096 0.323003 -40.645052 -0.000000 -0.000001 -0.000001 0.045186 -0.106988 11.318762 4.743686 27.220396 0.663956 2.390249 8.658956 6.077633 -0.000000 -0.000002 -0.000001 -5.191938 2.461424 7.463736 -36.546126 -12.663544 41.879851 108.022037 100.401069 -108.255049 8.723808 8.757502 13.528547 0.771208 5.344638 -12.596656 2.896815 -21.699794 1.337172 3.927241 -17.757566 -10.247664 -0.000002 0.000001 -0.000001 19.450487 11.178588 -8.323616 -0.114190 -0.326621 23.054072 -0.071717 -0.291076 28.275119 -0.000001 -0.000001 -0.000000 -31.469400 12.414964 29.310282 39.267591 -10.275995 -9.557389 -10.566687 -2.262095 -9.193918 -0.327605 1.238416 0.837253 -0.000000 -0.000001 -0.000000 -24.676867 -11.481483 -25.325645 39.467603 5.345445 -6.161868 -18.175465 2.128234 22.485060 -0.322821 -0.997434 -0.837144 -0.000000 0.000000 0.000000 
-1.679948 78.322655 1.407853 1.858797 -60.037172 2.027598 8.265273 0.286518 -2.538352 3.392291 0.441744 -5.662657 3.456780 0.335530 -5.634811 -27.055978 21.203894 8.399228 6.337708 16.156758 3.292766 0.000000 -0.000001 -0.000000 -7.015458 -7.297605 -5.961908 -22.479286 1.267550 -41.830824 0.747704 -43.314860 0.085077 24.610676 -6.219229 14.522338 13.368122 -1.037302 1.665257 -0.154747 0.330826 -40.123714 -0.119861 0.324310 -41.274239 0.000002 -0.000002 -0.000001 0.117625 0.483034 11.525458 4.912165 27.766546 0.860582 2.492017 9.218653 6.331182 0.000000 -0.000000 0.000001 -5.398969 4.155975 6.860632 -36.746285 -13.815974 40.938573 114.257542 96.121471 -114.337681 3.503273 9.189007 13.740670 0.738166 5.654212 -12.483934 2.798659 -21.417467 1.445427 3.892767 -17.461213 -10.116723 -0.000002 -0.000000 0.000001 19.445381 11.173972 -8.653830 -0.114512 -0.326309 22.724089 -0.072914 -0.291616 27.945115 -0.000000 0.000000 -0.000002 -31.597285 13.115851 29.920101 38.212221 -10.374417 -9.362365 -9.759438 -2.323692 -9.226252 -0.327605 1.238413 0.837253 0.000000 0.000001 0.000000 -24.480667 -11.705300 -24.439759 37.967775 5.453225 -5.998786 -16.941733 2.457640 22.117583 -0.322821 -0.997430 -0.837144 0.000000 0.000001 0.000000 
